:SAMPLES-PER-SECOND 30
:FRAME-RANGE 1-1770
:FULLY-SPECIFIED
:DEGREES
1107
root  15.3401 39.2856 -26.5705 2.43468 -38.8791 2.69046
RightUpLeg  -25.5353 6.28688 -2.96142
RightLeg  25.5925 -8.3933 -4.56818
RightFoot  -7.83567 -0.259964 6.74403
RightToes  -1.33073e-015 0 -3.6325e-017
Spine  -2.64618 -0.306296 -3.94629
Spine1  7.19679 0.0408885 -0.737591
HEad  5.60097 25.8146 -2.53453
LeftShoulder1  1.38125 -1.65515 -21.7442
LeftArm  6.67057 3.28657 -46.2355
LeftForeArm  41.641 2.73339 -14.7019
LeftHand  -0.011513 6.20412 3.31905
RightShoulder  1.78936 2.47105 24.902
RightArm  -16.5523 8.18975 55.2408
RightForeArm  71.0171 -2.32076 7.66743
RightHand  0.0946113 -6.11797 -17.3372
LeftUpLeg  -7.23833 1.27427 -7.21696
LeftLeg  17.5963 2.73376 0.979305
LeftFoot  -13.8861 0.194476 4.99321
LeftToes  1.09107e-011 -1.16422e-010 2.98337e-011
1108
root  14.8299 39.2976 -25.7973 2.82945 -38.1839 2.23152
RightUpLeg  -25.4054 4.70827 -1.61421
RightLeg  17.6972 -8.25706 -3.1377
RightFoot  -6.34775 -0.35473 7.1338
RightToes  -1.33073e-015 0 -3.6325e-017
Spine  -3.16433 -0.718003 -3.83655
Spine1  7.5198 -0.390243 -0.322511
HEad  6.30621 25.4262 -2.40896
LeftShoulder1  1.45486 -1.92221 -21.7305
LeftArm  7.0005 2.61414 -46.1772
LeftForeArm  41.4144 3.24496 -14.8252
LeftHand  -0.00895915 6.13344 3.22435
RightShoulder  1.73783 2.29775 24.9366
RightArm  -19.0526 7.37094 53.8849
RightForeArm  71.8509 -5.66316 6.13152
RightHand  0.140731 -6.44116 -17.1801
LeftUpLeg  -5.20508 1.57061 -6.83497
LeftLeg  16.4121 1.87811 0.627
LeftFoot  -14.6648 0.233215 4.99643
LeftToes  1.09107e-011 -1.16422e-010 2.98337e-011
1109
root  14.306 39.2462 -25.0112 3.13646 -37.6149 2.3165
RightUpLeg  -25.2782 2.07084 -0.266603
RightLeg  10.0824 -8.32232 -1.91815
RightFoot  -4.96856 -0.485235 8.09395
RightToes  -1.33073e-015 0 -3.6325e-017
Spine  -3.8709 -1.01458 -3.99097
Spine1  7.76018 -0.662618 -0.0478848
HEad  7.02576 24.6865 -2.27207
LeftShoulder1  1.5227 -2.17517 -21.6823
LeftArm  7.27971 1.94798 -46.3436
LeftForeArm  41.1871 3.39177 -14.897
LeftHand  -0.00828989 6.30266 3.07026
RightShoulder  1.67292 2.05125 25.1547
RightArm  -21.4744 6.30874 52.3121
RightForeArm  73.3909 -5.42841 5.07451
RightHand  0.167442 -6.63735 -17.0143
LeftUpLeg  -3.49802 1.46174 -7.00626
LeftLeg  15.4169 1.54251 0.590239
LeftFoot  -15.4866 0.275739 5.04318
LeftToes  1.09107e-011 -1.16422e-010 2.98337e-011
1110
root  13.7429 39.1699 -24.1919 3.38657 -36.7141 2.37001
RightUpLeg  -24.6696 1.9747 -0.093016
RightLeg  3.08189 -11.7003 -0.424762
RightFoot  -4.11025 -0.570901 8.57527
RightToes  -1.33073e-015 0 -3.6325e-017
Spine  -4.86012 -1.36437 -4.03127
Spine1  8.50057 -1.05078 0.255489
HEad  7.62981 23.7379 -2.25098
LeftShoulder1  1.54676 -2.26531 -21.6639
LeftArm  7.60629 1.02929 -46.6666
LeftForeArm  40.9296 3.28765 -14.9397
LeftHand  -0.00686106 6.34294 2.93981
RightShoulder  1.62851 1.91113 25.1362
RightArm  -23.9434 4.98933 50.8996
RightForeArm  74.8253 -5.16951 3.86105
RightHand  0.205758 -6.94794 -16.5641
LeftUpLeg  -1.6662 1.46979 -7.02251
LeftLeg  14.5387 0.789722 0.415001
LeftFoot  -16.3997 0.325914 5.14273
LeftToes  1.09107e-011 -1.16422e-010 2.98337e-011
1111
root  13.1435 39.009 -23.3388 3.39847 -35.7031 2.60132
RightUpLeg  -24.2085 2.07561 -0.326807
RightLeg  -1.28827 -14.3124 1.02836
RightFoot  -4.79159 -0.535581 8.77182
RightToes  -1.33073e-015 0 -3.6325e-017
Spine  -5.3704 -1.59963 -4.19058
Spine1  8.63884 -1.34774 0.585245
HEad  8.51504 22.5632 -2.10847
LeftShoulder1  1.58738 -2.39979 -21.7259
LeftArm  8.25338 0.285014 -47.1357
LeftForeArm  40.6469 2.83818 -15.0196
LeftHand  -0.00739461 6.22619 3.15856
RightShoulder  1.55799 1.6661 25.2527
RightArm  -26.2265 3.14458 49.2239
RightForeArm  76.2624 -4.90844 2.65189
RightHand  0.258332 -7.37367 -16.1647
LeftUpLeg  -0.0562123 1.5817 -7.08501
LeftLeg  14.6298 -0.174633 0.19874
LeftFoot  -17.6808 0.392006 5.15555
LeftToes  1.09107e-011 -1.16422e-010 2.98337e-011
1112
root  12.5359 38.8172 -22.4379 3.08881 -34.7961 2.95352
RightUpLeg  -24.3403 2.26571 -0.38651
RightLeg  -0.689106 -15.4316 0.523678
RightFoot  -5.86674 -0.457054 8.70624
RightToes  -1.33073e-015 0 -3.6325e-017
Spine  -5.73585 -1.70525 -4.00405
Spine1  8.99186 -1.4715 0.468006
HEad  9.43163 21.3509 -1.97333
LeftShoulder1  1.59964 -2.42693 -21.8134
LeftArm  8.50715 -0.687393 -47.7714
LeftForeArm  40.5864 2.41045 -15.0029
LeftHand  -0.0154125 5.87591 3.11628
RightShoulder  1.48854 1.43081 25.3375
RightArm  -28.2932 1.05869 47.6849
RightForeArm  77.4256 -4.66492 1.49397
RightHand  0.293771 -7.74259 -15.4684
LeftUpLeg  1.58011 1.65741 -7.24974
LeftLeg  15.3784 -1.12227 0.0194633
LeftFoot  -18.8816 0.421757 4.6753
LeftToes  1.09107e-011 -1.16422e-010 2.98337e-011
1113
root  11.9271 38.7337 -21.5031 2.94658 -34.0752 2.76883
RightUpLeg  -24.4 1.89097 0.0168408
RightLeg  2.4525 -15.0556 -0.17364
RightFoot  -3.70779 -0.427792 6.02706
RightToes  -1.33073e-015 0 -3.6325e-017
Spine  -6.0498 -1.59844 -3.01602
Spine1  9.64146 -1.55506 0.540615
HEad  10.4528 20.3754 -2.20618
LeftShoulder1  1.62564 -2.42673 -22.2964
LeftArm  8.88607 -1.45225 -48.2642
LeftForeArm  40.437 1.64287 -14.9511
LeftHand  -0.0145876 5.85666 3.35731
RightShoulder  1.42386 1.24305 25.1974
RightArm  -29.8607 -1.22536 46.2008
RightForeArm  78.2156 -4.48174 0.610203
RightHand  0.313001 -7.99732 -14.8808
LeftUpLeg  3.59534 1.5869 -6.98737
LeftLeg  15.6354 -1.82226 -0.0342886
LeftFoot  -19.2236 0.381548 3.86007
LeftToes  1.09107e-011 -1.16422e-010 2.98337e-011
1114
root  11.3148 38.8203 -20.5636 3.51875 -33.0088 1.58752
RightUpLeg  -24.1533 2.53394 0.935151
RightLeg  4.64889 -16.5287 -1.41606
RightFoot  1.62867 -0.398184 3.59881
RightToes  -1.33073e-015 0 -3.6325e-017
Spine  -6.57286 -1.53804 -1.08563
Spine1  10.6343 -1.98982 1.23493
HEad  11.3354 19.666 -2.52538
LeftShoulder1  1.6441 -2.44119 -22.5615
LeftArm  8.50034 -1.64964 -49.2025
LeftForeArm  40.6958 0.872446 -14.7424
LeftHand  -0.0140785 5.82802 3.60069
RightShoulder  1.31026 0.862261 25.3187
RightArm  -30.685 -3.37965 44.6137
RightForeArm  78.4962 -4.39344 0.161629
RightHand  0.330189 -8.23879 -14.3768
LeftUpLeg  5.4256 0.778925 -5.84924
LeftLeg  15.68 -2.24576 0.0173238
LeftFoot  -18.41 0.259583 2.41278
LeftToes  1.09107e-011 -1.16422e-010 2.98337e-011
1115
root  10.6819 38.9156 -19.5914 4.29129 -32.1582 0.239136
RightUpLeg  -23.9772 2.41664 1.84114
RightLeg  7.16385 -17.4909 -2.07106
RightFoot  5.30646 -0.466947 3.43849
RightToes  -1.33073e-015 0 -3.6325e-017
Spine  -6.8489 -1.50135 1.10338
Spine1  10.8436 -2.32665 1.73685
HEad  12.4033 19.2282 -2.57612
LeftShoulder1  1.67251 -2.4478 -23.0497
LeftArm  8.98061 -1.40024 -49.9143
LeftForeArm  40.0809 -0.130275 -14.6527
LeftHand  -0.00926232 5.90505 4.10211
RightShoulder  1.2235 0.535861 25.733
RightArm  -30.6412 -5.34487 42.8031
RightForeArm  77.929 -4.43172 0.245365
RightHand  0.325871 -8.26781 -14.0818
LeftUpLeg  6.22464 -0.791623 -4.59404
LeftLeg  17.4863 -1.92458 -0.156522
LeftFoot  -17.1391 0.0972864 -0.109077
LeftToes  1.09107e-011 -1.16422e-010 2.98337e-011
1116
root  10.0346 38.9905 -18.6289 5.06026 -32.3861 -0.933365
RightUpLeg  -23.6974 1.35616 2.91245
RightLeg  9.62225 -16.3188 -1.69735
RightFoot  5.60052 -0.378076 2.79528
RightToes  -1.33073e-015 0 -3.6325e-017
Spine  -7.00079 -1.28665 3.0458
Spine1  10.6401 -2.26899 2.00121
HEad  13.5207 19.4386 -2.74758
LeftShoulder1  1.62547 -2.20243 -23.5141
LeftArm  9.10678 -0.786857 -50.7884
LeftForeArm  39.9895 -1.10656 -14.4678
LeftHand  -0.0259416 5.36956 3.71865
RightShoulder  1.19367 0.42711 25.861
RightArm  -31.1714 -6.66544 41.7028
RightForeArm  77.7877 -4.38249 -0.0779429
RightHand  0.314997 -8.19476 -13.9981
LeftUpLeg  5.72254 -0.166891 -3.01322
LeftLeg  21.3708 -3.00712 -0.963915
LeftFoot  -14.8272 -0.0021924 -2.99217
LeftToes  1.09107e-011 -1.16422e-010 2.98337e-011
1117
root  9.38587 39.0562 -17.7751 5.78284 -32.644 -1.91501
RightUpLeg  -23.1627 1.3381 4.10736
RightLeg  11.6083 -15.6693 -2.03834
RightFoot  4.01048 -0.200356 1.68959
RightToes  -1.33073e-015 0 -3.6325e-017
Spine  -7.22897 -1.29455 4.1943
Spine1  10.832 -2.43235 2.7543
HEad  14.5951 20.086 -2.75078
LeftShoulder1  1.58746 -2.08959 -23.4212
LeftArm  8.72412 0.10241 -51.7952
LeftForeArm  39.9982 -2.1425 -14.15
LeftHand  -0.0270111 5.32844 3.80429
RightShoulder  1.22798 0.533581 25.8753
RightArm  -30.8633 -7.20351 41.36
RightForeArm  76.7434 -4.46837 0.168372
RightHand  0.301133 -8.20449 -13.4211
LeftUpLeg  3.65634 2.76507 -0.536618
LeftLeg  27.5277 -6.44456 -3.2973
LeftFoot  -10.7959 0.0944999 -6.26889
LeftToes  1.09107e-011 -1.16422e-010 2.98337e-011
1118
root  8.76263 39.1002 -17.0024 6.32759 -32.5019 -2.59113
RightUpLeg  -22.482 1.45416 4.89124
RightLeg  13.2041 -15.7549 -2.36834
RightFoot  2.16786 -0.125988 1.18828
RightToes  -1.33073e-015 0 -3.6325e-017
Spine  -7.4258 -1.54512 4.82518
Spine1  11.2191 -2.83026 3.59592
HEad  15.4887 20.7189 -2.33036
LeftShoulder1  1.57927 -2.15997 -22.8629
LeftArm  9.07382 0.825497 -52.913
LeftForeArm  40.0822 -3.49567 -13.8161
LeftHand  -0.0293223 5.11908 3.61818
RightShoulder  1.2183 0.510331 25.8119
RightArm  -30.9955 -6.81191 41.8081
RightForeArm  76.5283 -4.46841 0.116034
RightHand  0.243531 -7.81771 -12.8075
LeftUpLeg  0.372793 5.27825 1.93446
LeftLeg  35.2009 -8.98335 -6.40542
LeftFoot  -5.49605 0.568066 -10.4613
LeftToes  1.09107e-011 -1.16422e-010 2.98337e-011
1119
root  8.21525 39.0454 -16.3012 6.78429 -32.1176 -3.44913
RightUpLeg  -22.1035 0.768408 5.76844
RightLeg  15.5051 -15.3533 -2.47415
RightFoot  -0.252066 -0.0691171 0.693978
RightToes  -1.33073e-015 0 -3.6325e-017
Spine  -7.00671 -1.84672 5.84542
Spine1  11.3188 -3.18389 4.24038
HEad  15.8445 21.0013 -2.11539
LeftShoulder1  1.6066 -2.27671 -22.7421
LeftArm  12.1473 0.979573 -53.308
LeftForeArm  38.2881 -5.73662 -13.5165
LeftHand  -0.0322841 5.27532 3.74838
RightShoulder  1.1967 0.434701 25.8785
RightArm  -29.0523 -6.39511 42.1975
RightForeArm  74.7563 -4.7625 1.41569
RightHand  0.211094 -7.66085 -12.071
LeftUpLeg  -3.70482 6.76116 4.28944
LeftLeg  43.4085 -8.90621 -8.541
LeftFoot  -1.45469 1.40225 -16.0252
LeftToes  1.09107e-011 -1.16422e-010 2.98337e-011
1120
root  7.68004 39.017 -15.614 6.90569 -32.0509 -4.12482
RightUpLeg  -21.1437 0.224649 6.59505
RightLeg  17.1177 -14.7096 -2.57949
RightFoot  -2.3753 -0.0796864 0.80982
RightToes  -1.33073e-015 0 -3.6325e-017
Spine  -6.48023 -1.95162 6.66693
Spine1  11.4276 -3.27707 4.57997
HEad  15.9637 21.2331 -2.019
LeftShoulder1  1.63033 -2.33955 -22.8483
LeftArm  15.2752 0.441053 -53.4954
LeftForeArm  36.8311 -7.53249 -13.1618
LeftHand  -0.0333053 5.28356 3.80876
RightShoulder  1.21581 0.490413 25.9178
RightArm  -27.4188 -5.51362 42.8887
RightForeArm  73.3832 -4.98994 2.43352
RightHand  0.169318 -7.21534 -12.2595
LeftUpLeg  -7.39335 8.32938 6.0223
LeftLeg  49.7529 -6.18413 -7.35159
LeftFoot  -0.770098 1.39787 -14.9905
LeftToes  1.09107e-011 -1.16422e-010 2.98337e-011
1121
root  7.13009 39.0722 -14.9237 6.69948 -32.5716 -4.15161
RightUpLeg  -19.7514 0.016599 6.99751
RightLeg  17.8141 -13.9962 -2.7568
RightFoot  -3.93352 -0.0824421 0.860056
RightToes  -1.33073e-015 0 -3.6325e-017
Spine  -6.09994 -1.7625 6.81905
Spine1  11.3489 -3.00672 4.53463
HEad  16.3533 21.457 -1.73908
LeftShoulder1  1.6458 -2.4191 -22.7099
LeftArm  17.0352 -0.0425343 -53.7053
LeftForeArm  36.3407 -8.89414 -12.6738
LeftHand  -0.0227051 5.43815 4.63814
RightShoulder  1.26293 0.60469 26.2074
RightArm  -25.9188 -4.20322 43.6072
RightForeArm  72.5297 -5.16552 3.2774
RightHand  0.138282 -6.7903 -13.1991
LeftUpLeg  -10.5351 9.74578 6.80021
LeftLeg  53.1646 -2.71005 -3.41719
LeftFoot  -2.32469 0.964587 -12.0235
LeftToes  1.09107e-011 -1.16422e-010 2.98337e-011
